<svg xmlns="http://www.w3.org/2000/svg" enable-background="new 0 0 500 500" viewBox="0 0 500 500"><path fill="none" stroke="#d8a353" stroke-linecap="round" stroke-linejoin="round" stroke-miterlimit="10" stroke-width="15" d="
					M252.871,153.187L252.871,153.187c-19.005,0-34.411-15.406-34.411-34.411V92.709c0-19.005,15.406-34.411,34.411-34.411h0
					c19.005,0,34.411,15.406,34.411,34.411v26.066C287.282,137.78,271.876,153.187,252.871,153.187z" class="colorStroke333333 svgStroke"/><polyline fill="none" stroke="#333" stroke-linecap="round" stroke-linejoin="round" stroke-miterlimit="10" stroke-width="15" points="279.442 21.675 303.834 47.81 284.669 73.925"/><polyline fill="none" stroke="#333" stroke-linecap="round" stroke-linejoin="round" stroke-miterlimit="10" stroke-width="15" points="287.282 94.853 315.16 87.012 321.258 66.104"/><polyline fill="none" stroke="#333" stroke-linecap="round" stroke-linejoin="round" stroke-miterlimit="10" stroke-width="15" points="288.153 109.663 317.773 113.147 323 141.896"/><polyline fill="none" stroke="#333" stroke-linecap="round" stroke-linejoin="round" stroke-miterlimit="10" stroke-width="15" points="286.432 133.168 307.319 161.933 289.025 186.325"/><polyline fill="none" stroke="#333" stroke-linecap="round" stroke-linejoin="round" stroke-miterlimit="10" stroke-width="15" points="224.558 21.675 200.166 47.81 219.331 73.925"/><polyline fill="none" stroke="#333" stroke-linecap="round" stroke-linejoin="round" stroke-miterlimit="10" stroke-width="15" points="216.718 94.853 188.84 87.012 182.742 66.104"/><polyline fill="none" stroke="#333" stroke-linecap="round" stroke-linejoin="round" stroke-miterlimit="10" stroke-width="15" points="215.847 109.663 186.227 113.147 181 141.896"/><polyline fill="none" stroke="#333" stroke-linecap="round" stroke-linejoin="round" stroke-miterlimit="10" stroke-width="15" points="217.568 133.168 196.681 161.933 214.975 186.325"/><line x1="241.11" x2="262.89" y1="122.73" y2="122.73" fill="none" stroke="#d8a353" stroke-linecap="round" stroke-linejoin="round" stroke-miterlimit="10" stroke-width="15" class="colorStroke333333 svgStroke"/><line x1="447.5" x2="447.5" y1="321.5" y2="389.5" fill="none" stroke="#d8a353" stroke-linecap="round" stroke-linejoin="round" stroke-miterlimit="10" stroke-width="15" class="colorStroke333333 svgStroke"/><polyline fill="none" stroke="#333" stroke-linecap="round" stroke-linejoin="round" stroke-miterlimit="10" stroke-width="15" points="375 257.5 375 337.5 421.535 337.5"/><line x1="279.5" x2="342.23" y1="257.5" y2="257.5" fill="none" stroke="#d8a353" stroke-linecap="round" stroke-linejoin="round" stroke-miterlimit="10" stroke-width="15" class="colorStroke333333 svgStroke"/><line x1="252.5" x2="252.5" y1="175.5" y2="257.5" fill="none" stroke="#d8a353" stroke-linecap="round" stroke-linejoin="round" stroke-miterlimit="10" stroke-width="15" class="colorStroke333333 svgStroke"/><polyline fill="none" stroke="#333" stroke-linecap="round" stroke-linejoin="round" stroke-miterlimit="10" stroke-width="15" points="103.145 337.5 57.5 337.5 57.5 442.5"/><polyline fill="none" stroke="#333" stroke-linecap="round" stroke-linejoin="round" stroke-miterlimit="10" stroke-width="15" points="166.5 257.5 130.5 257.5 130.5 365.5"/><line x1="375" x2="375" y1="364.5" y2="442.5" fill="none" stroke="#d8a353" stroke-linecap="round" stroke-linejoin="round" stroke-miterlimit="10" stroke-width="15" class="colorStroke333333 svgStroke"/><line x1="375.5" x2="375.5" y1="467.5" y2="470.5" fill="none" stroke="#d8a353" stroke-linecap="round" stroke-linejoin="round" stroke-miterlimit="10" stroke-width="15" class="colorStroke333333 svgStroke"/><line x1="447.5" x2="447.5" y1="414.5" y2="417.5" fill="none" stroke="#d8a353" stroke-linecap="round" stroke-linejoin="round" stroke-miterlimit="10" stroke-width="15" class="colorStroke333333 svgStroke"/><line x1="447.5" x2="447.5" y1="289.5" y2="292.5" fill="none" stroke="#d8a353" stroke-linecap="round" stroke-linejoin="round" stroke-miterlimit="10" stroke-width="15" class="colorStroke333333 svgStroke"/><line x1="57.5" x2="57.5" y1="301.5" y2="307.5" fill="none" stroke="#d8a353" stroke-linecap="round" stroke-linejoin="round" stroke-miterlimit="10" stroke-width="15" class="colorStroke333333 svgStroke"/><line x1="447.5" x2="447.5" y1="443.5" y2="467.5" fill="none" stroke="#d8a353" stroke-linecap="round" stroke-linejoin="round" stroke-miterlimit="10" stroke-width="15" class="colorStroke333333 svgStroke"/><line x1="311.5" x2="311.5" y1="376.5" y2="409.5" fill="none" stroke="#d8a353" stroke-linecap="round" stroke-linejoin="round" stroke-miterlimit="10" stroke-width="15" class="colorStroke333333 svgStroke"/><line x1="311.5" x2="311.5" y1="284.5" y2="350.5" fill="none" stroke="#d8a353" stroke-linecap="round" stroke-linejoin="round" stroke-miterlimit="10" stroke-width="15" class="colorStroke333333 svgStroke"/><line x1="311.5" x2="311.5" y1="434.5" y2="440.5" fill="none" stroke="#d8a353" stroke-linecap="round" stroke-linejoin="round" stroke-miterlimit="10" stroke-width="15" class="colorStroke333333 svgStroke"/><line x1="253" x2="253" y1="331.5" y2="417.5" fill="none" stroke="#d8a353" stroke-linecap="round" stroke-linejoin="round" stroke-miterlimit="10" stroke-width="15" class="colorStroke333333 svgStroke"/><line x1="253.5" x2="253.5" y1="284.5" y2="300.5" fill="none" stroke="#d8a353" stroke-linecap="round" stroke-linejoin="round" stroke-miterlimit="10" stroke-width="15" class="colorStroke333333 svgStroke"/><line x1="253.5" x2="253.5" y1="451.5" y2="477.5" fill="none" stroke="#d8a353" stroke-linecap="round" stroke-linejoin="round" stroke-miterlimit="10" stroke-width="15" class="colorStroke333333 svgStroke"/><line x1="193.5" x2="193.5" y1="346.5" y2="383.5" fill="none" stroke="#d8a353" stroke-linecap="round" stroke-linejoin="round" stroke-miterlimit="10" stroke-width="15" class="colorStroke333333 svgStroke"/><line x1="193.5" x2="193.5" y1="407.5" y2="411.5" fill="none" stroke="#d8a353" stroke-linecap="round" stroke-linejoin="round" stroke-miterlimit="10" stroke-width="15" class="colorStroke333333 svgStroke"/><line x1="193.5" x2="193.5" y1="233.5" y2="295.5" fill="none" stroke="#d8a353" stroke-linecap="round" stroke-linejoin="round" stroke-miterlimit="10" stroke-width="15" class="colorStroke333333 svgStroke"/><line x1="193.5" x2="193.5" y1="446.5" y2="462.5" fill="none" stroke="#d8a353" stroke-linecap="round" stroke-linejoin="round" stroke-miterlimit="10" stroke-width="15" class="colorStroke333333 svgStroke"/><line x1="57.5" x2="57.5" y1="465.5" y2="472.5" fill="none" stroke="#d8a353" stroke-linecap="round" stroke-linejoin="round" stroke-miterlimit="10" stroke-width="15" class="colorStroke333333 svgStroke"/><line x1="130.5" x2="130.5" y1="423.5" y2="457.5" fill="none" stroke="#d8a353" stroke-linecap="round" stroke-linejoin="round" stroke-miterlimit="10" stroke-width="15" class="colorStroke333333 svgStroke"/><line x1="130.5" x2="130.5" y1="480.5" y2="487.5" fill="none" stroke="#d8a353" stroke-linecap="round" stroke-linejoin="round" stroke-miterlimit="10" stroke-width="15" class="colorStroke333333 svgStroke"/><line x1="130.5" x2="130.5" y1="395.5" y2="399.5" fill="none" stroke="#d8a353" stroke-linecap="round" stroke-linejoin="round" stroke-miterlimit="10" stroke-width="15" class="colorStroke333333 svgStroke"/><line x1="217.5" x2="227.5" y1="257.5" y2="257.5" fill="none" stroke="#d8a353" stroke-linecap="round" stroke-linejoin="round" stroke-miterlimit="10" stroke-width="15" class="colorStroke333333 svgStroke"/></svg>