<svg xmlns="http://www.w3.org/2000/svg" enable-background="new 0 0 500 500" viewBox="0 0 500 500"><path fill="none" stroke="#595bd4" stroke-linecap="round" stroke-linejoin="round" stroke-miterlimit="10" stroke-width="15" d="
			M313.537,485.884V376.39l55.025,16.4c2.419,0.712,4.318,1.067,6.811,1.067c2.726,0,5.385-0.425,8.008-1.273l84.152-27.222
			c13.792-4.46,21.34-19.255,16.88-33.046c-4.46-13.791-19.267-21.353-33.054-16.897l-76.482,24.73l-75.984-23.908l17.621-17.775
			c6.55-6.607,7.869-16.781,3.22-24.84l-35.874-62.189c-6.71-11.985-19.374-19.408-33.109-19.408h0
			c-13.497,0-25.978,7.169-32.778,18.828l-36.813,63.117c-4.602,7.89-3.469,17.867,2.784,24.525l16.664,17.742l-75.895,23.908
			l-76.482-24.73c-13.787-4.456-28.594,3.106-33.054,16.897c-4.46,13.791,3.088,28.586,16.88,33.046l84.152,27.222
			c2.623,0.848,5.282,1.273,8.008,1.273c2.493,0,4.392-0.355,6.811-1.067l55.025-16.4v109.493" class="colorStroke333333 svgStroke"/><polyline fill="none" stroke="#333" stroke-linecap="round" stroke-linejoin="round" stroke-miterlimit="10" stroke-width="15" points="209.608 282.641 251.682 258.098 293.756 282.641"/><path fill="none" stroke="#595bd4" stroke-linecap="round" stroke-linejoin="round" stroke-miterlimit="10" stroke-width="15" d="
			M220.126,280.304l10.331,23.614c3.664,8.374,11.937,13.785,21.078,13.785h0c8.69,0,16.638-4.896,20.547-12.656l12.167-24.153" class="colorStroke333333 svgStroke"/><line x1="252.5" x2="252.5" y1="358.5" y2="485.5" fill="none" stroke="#595bd4" stroke-linecap="round" stroke-linejoin="round" stroke-miterlimit="10" stroke-width="15" class="colorStroke333333 svgStroke"/><polyline fill="none" stroke="#333" stroke-linecap="round" stroke-linejoin="round" stroke-miterlimit="10" stroke-width="15" points="127.242 141.158 141.26 127.14 141.26 184.056"/><path fill="none" stroke="#595bd4" stroke-linecap="round" stroke-linejoin="round" stroke-miterlimit="10" stroke-width="15" d="
		M140.697,93.811h-0.893c-9.665,0-17.5-7.835-17.5-17.5V53.883c0-9.665,7.835-17.5,17.5-17.5h0.893c9.665,0,17.5,7.835,17.5,17.5
		v22.429C158.197,85.976,150.362,93.811,140.697,93.811z" class="colorStroke333333 svgStroke"/><polyline fill="none" stroke="#333" stroke-linecap="round" stroke-linejoin="round" stroke-miterlimit="10" stroke-width="15" points="207.482 107.602 221.5 93.584 221.5 150.5"/><path fill="none" stroke="#595bd4" stroke-linecap="round" stroke-linejoin="round" stroke-miterlimit="10" stroke-width="15" d="
		M298.776,102.475h-0.893c-9.665,0-17.5-7.835-17.5-17.5V62.546c0-9.665,7.835-17.5,17.5-17.5h0.893c9.665,0,17.5,7.835,17.5,17.5
		v22.429C316.276,94.64,308.441,102.475,298.776,102.475z" class="colorStroke333333 svgStroke"/><polyline fill="none" stroke="#333" stroke-linecap="round" stroke-linejoin="round" stroke-miterlimit="10" stroke-width="15" points="361.289 38.607 375.307 24.589 375.307 81.505"/><path fill="none" stroke="#595bd4" stroke-linecap="round" stroke-linejoin="round" stroke-miterlimit="10" stroke-width="15" d="
		M375.765,171.75h-0.893c-9.665,0-17.5-7.835-17.5-17.5v-22.429c0-9.665,7.835-17.5,17.5-17.5h0.893c9.665,0,17.5,7.835,17.5,17.5
		v22.429C393.265,163.915,385.43,171.75,375.765,171.75z" class="colorStroke333333 svgStroke"/><line x1="73.862" x2="73.862" y1="201.49" y2="176.878" fill="none" stroke="#595bd4" stroke-linecap="round" stroke-linejoin="round" stroke-miterlimit="10" stroke-width="15" class="colorStroke333333 svgStroke"/><line x1="73.862" x2="73.862" y1="110.219" y2="21" fill="none" stroke="#595bd4" stroke-linecap="round" stroke-linejoin="round" stroke-miterlimit="10" stroke-width="15" class="colorStroke333333 svgStroke"/><line x1="73.862" x2="73.862" y1="143.036" y2="147.138" fill="none" stroke="#595bd4" stroke-linecap="round" stroke-linejoin="round" stroke-miterlimit="10" stroke-width="15" class="colorStroke333333 svgStroke"/><line x1="141.251" x2="141.251" y1="279.429" y2="254.817" fill="none" stroke="#595bd4" stroke-linecap="round" stroke-linejoin="round" stroke-miterlimit="10" stroke-width="15" class="colorStroke333333 svgStroke"/><line x1="221.75" x2="221.75" y1="53.429" y2="28.817" fill="none" stroke="#595bd4" stroke-linecap="round" stroke-linejoin="round" stroke-miterlimit="10" stroke-width="15" class="colorStroke333333 svgStroke"/><line x1="141.251" x2="141.251" y1="220.975" y2="225.077" fill="none" stroke="#595bd4" stroke-linecap="round" stroke-linejoin="round" stroke-miterlimit="10" stroke-width="15" class="colorStroke333333 svgStroke"/><line x1="73.75" x2="73.75" y1="255.975" y2="260.077" fill="none" stroke="#595bd4" stroke-linecap="round" stroke-linejoin="round" stroke-miterlimit="10" stroke-width="15" class="colorStroke333333 svgStroke"/><line x1="22.046" x2="22.046" y1="104.066" y2="149.189" fill="none" stroke="#595bd4" stroke-linecap="round" stroke-linejoin="round" stroke-miterlimit="10" stroke-width="15" class="colorStroke333333 svgStroke"/><line x1="22.046" x2="22.046" y1="183.031" y2="178.929" fill="none" stroke="#595bd4" stroke-linecap="round" stroke-linejoin="round" stroke-miterlimit="10" stroke-width="15" class="colorStroke333333 svgStroke"/><line x1="22.046" x2="22.046" y1="77.403" y2="73.301" fill="none" stroke="#595bd4" stroke-linecap="round" stroke-linejoin="round" stroke-miterlimit="10" stroke-width="15" class="colorStroke333333 svgStroke"/><line x1="438.337" x2="438.337" y1="224.49" y2="199.878" fill="none" stroke="#595bd4" stroke-linecap="round" stroke-linejoin="round" stroke-miterlimit="10" stroke-width="15" class="colorStroke333333 svgStroke"/><line x1="438.337" x2="438.337" y1="110.219" y2="21" fill="none" stroke="#595bd4" stroke-linecap="round" stroke-linejoin="round" stroke-miterlimit="10" stroke-width="15" class="colorStroke333333 svgStroke"/><line x1="438.337" x2="438.337" y1="143.036" y2="147.138" fill="none" stroke="#595bd4" stroke-linecap="round" stroke-linejoin="round" stroke-miterlimit="10" stroke-width="15" class="colorStroke333333 svgStroke"/><line x1="375.832" x2="375.832" y1="266.097" y2="241.485" fill="none" stroke="#595bd4" stroke-linecap="round" stroke-linejoin="round" stroke-miterlimit="10" stroke-width="15" class="colorStroke333333 svgStroke"/><line x1="375.832" x2="375.832" y1="207.643" y2="211.745" fill="none" stroke="#595bd4" stroke-linecap="round" stroke-linejoin="round" stroke-miterlimit="10" stroke-width="15" class="colorStroke333333 svgStroke"/><line x1="297.832" x2="297.832" y1="179.5" y2="157.485" fill="none" stroke="#595bd4" stroke-linecap="round" stroke-linejoin="round" stroke-miterlimit="10" stroke-width="15" class="colorStroke333333 svgStroke"/><line x1="297.832" x2="297.832" y1="127.643" y2="131.745" fill="none" stroke="#595bd4" stroke-linecap="round" stroke-linejoin="round" stroke-miterlimit="10" stroke-width="15" class="colorStroke333333 svgStroke"/><line x1="297.832" x2="297.832" y1="18.643" y2="22.745" fill="none" stroke="#595bd4" stroke-linecap="round" stroke-linejoin="round" stroke-miterlimit="10" stroke-width="15" class="colorStroke333333 svgStroke"/><line x1="483.153" x2="483.153" y1="104.066" y2="149.189" fill="none" stroke="#595bd4" stroke-linecap="round" stroke-linejoin="round" stroke-miterlimit="10" stroke-width="15" class="colorStroke333333 svgStroke"/><line x1="483.153" x2="483.153" y1="183.031" y2="178.929" fill="none" stroke="#595bd4" stroke-linecap="round" stroke-linejoin="round" stroke-miterlimit="10" stroke-width="15" class="colorStroke333333 svgStroke"/><line x1="483.153" x2="483.153" y1="77.403" y2="73.301" fill="none" stroke="#595bd4" stroke-linecap="round" stroke-linejoin="round" stroke-miterlimit="10" stroke-width="15" class="colorStroke333333 svgStroke"/></svg>