<svg xmlns="http://www.w3.org/2000/svg" enable-background="new 0 0 500 500" viewBox="0 0 500 500"><line x1="251.5" x2="215.402" y1="257.5" y2="276.341" fill="none" stroke="#34a853" stroke-linecap="round" stroke-linejoin="round" stroke-miterlimit="10" stroke-width="15" class="colorStroke333333 svgStroke"/><line x1="25" x2="483" y1="420.5" y2="420.5" fill="none" stroke="#34a853" stroke-linecap="round" stroke-linejoin="round" stroke-miterlimit="10" stroke-width="15" class="colorStroke333333 svgStroke"/><path fill="none" stroke="#34a853" stroke-linecap="round" stroke-linejoin="round" stroke-miterlimit="10" stroke-width="15" d="
				M411.018,345.573l-66.351,8.063c-12.405,1.609-21.688,12.174-21.688,24.682v0.421l0,0c0,7.95,6.445,14.395,14.395,14.395h102.168
				c7.181,0,13.002-5.821,13.002-13.002l0,0v-10.131c0-18.251-6.162-35.968-17.488-50.281l-25.569-32.311
				c-11.015-13.919-26.295-23.836-43.494-28.228L338.5,252.5" class="colorStroke333333 svgStroke"/><line x1="369.402" x2="394.934" y1="313.755" y2="342.797" fill="none" stroke="#34a853" stroke-linecap="round" stroke-linejoin="round" stroke-miterlimit="10" stroke-width="15" class="colorStroke333333 svgStroke"/><path fill="none" stroke="#34a853" stroke-linecap="round" stroke-linejoin="round" stroke-miterlimit="10" stroke-width="15" d="
			M323.675,362.717h-79.683l-36.325-109.742c-1.439-4.348-5.504-7.284-10.084-7.284H59.468c-7.159,0-12.268,6.938-10.143,13.775
			l41.201,133.667h178.012" class="colorStroke333333 svgStroke"/><line x1="24.87" x2="58.242" y1="175.464" y2="205.16" fill="none" stroke="#34a853" stroke-linecap="round" stroke-linejoin="round" stroke-miterlimit="10" stroke-width="15" class="colorStroke333333 svgStroke"/><line x1="182.242" x2="148.87" y1="175.464" y2="205.16" fill="none" stroke="#34a853" stroke-linecap="round" stroke-linejoin="round" stroke-miterlimit="10" stroke-width="15" class="colorStroke333333 svgStroke"/><line x1="103.5" x2="103.5" y1="188.5" y2="148.5" fill="none" stroke="#34a853" stroke-linecap="round" stroke-linejoin="round" stroke-miterlimit="10" stroke-width="15" class="colorStroke333333 svgStroke"/><path fill="none" stroke="#34a853" stroke-linecap="round" stroke-linejoin="round" stroke-miterlimit="10" stroke-width="15" d="
		M257.5,263.5l-32.93-57.414c-5.482-10.025-4.335-22.374,2.9-31.217l47.111-57.581c7.975-9.747,20.601-14.413,32.998-12.195
		l61.384,10.88c9.487,1.682,12.249,13.966,4.395,19.547l-8.004,5.687c-5.28,3.752-7.543,10.477-5.606,16.657l14.394,45.924
		c2.116,6.753,0.973,14.106-3.094,19.897l-20.94,29.814" class="colorStroke333333 svgStroke"/><polyline fill="none" stroke="#333" stroke-linecap="round" stroke-linejoin="round" stroke-miterlimit="10" stroke-width="15" points="242.5 195.5 282.5 179.5 341.5 210.5"/><path fill="none" stroke="#34a853" stroke-linecap="round" stroke-linejoin="round" stroke-miterlimit="10" stroke-width="15" d="
		M261.5,195.5l11.407,38.022c2.133,7.109,8.677,11.978,16.099,11.978h5.268c6.796,0,12.923-4.092,15.526-10.37l12.7-30.63" class="colorStroke333333 svgStroke"/><line x1="292.5" x2="283.5" y1="279.5" y2="362.5" fill="none" stroke="#34a853" stroke-linecap="round" stroke-linejoin="round" stroke-miterlimit="10" stroke-width="15" class="colorStroke333333 svgStroke"/></svg>