<svg xmlns="http://www.w3.org/2000/svg" enable-background="new 0 0 500 500" viewBox="0 0 500 500"><path fill="none" stroke="#d85b53" stroke-linecap="round" stroke-linejoin="round" stroke-miterlimit="10" stroke-width="15" d="M342.827 103.649c-71.94-10.795-100.681-49.512-100.681-49.512s-51.235 68.722-187.652 48.131c0 0-26.705 149.311 50.975 269.165M165.199 438.015c21.409 17.4 46.683 32.875 76.491 45.511 93.84-39.546 142.882-107.265 167.875-174.735" class="colorStroke333333 svgStroke"/><path fill="none" stroke="#d85b53" stroke-linecap="round" stroke-linejoin="round" stroke-miterlimit="10" stroke-width="15" d="M65.133 285.389c-21.889 0-39.633 17.744-39.633 39.633v48.013c0 21.889 17.744 39.633 39.633 39.633h116.754c10.999 0 19.916-8.917 19.916-19.916v0c0-10.999-8.917-19.916-19.916-19.916H78.834c-7.457 0-13.502-6.045-13.502-13.502v-20.61c0-7.457 6.045-13.502 13.502-13.502M408.5 76.98V51.416c0-10.999-8.917-19.916-19.916-19.916h-.169c-10.999 0-19.916 8.917-19.916 19.916v36.055c0 19.997 16.211 36.208 36.208 36.208h12.768c6.894 0 12.482 5.588 12.482 12.482v94.204c0 6.894-5.588 12.482-12.482 12.482h-53.651c-6.894 0-12.482-5.588-12.482-12.482v-21.95c0-10.999-8.917-19.916-19.916-19.916h0c-10.999 0-19.916 8.917-19.916 19.916v38.055c0 19.997 16.211 36.208 36.208 36.208h85.862c19.997 0 36.208-16.211 36.208-36.208V120.056c0-19.997-16.211-36.208-36.208-36.208h-18.215C411.575 83.848 408.5 80.773 408.5 76.98z" class="colorStroke333333 svgStroke"/><line x1="242.5" x2="242.5" y1="54.5" y2="452.5" fill="none" stroke="#d85b53" stroke-linecap="round" stroke-linejoin="round" stroke-miterlimit="10" stroke-width="15" class="colorStroke333333 svgStroke"/><path fill="none" stroke="#d85b53" stroke-linecap="round" stroke-linejoin="round" stroke-miterlimit="10" stroke-width="15" d="
		M286.268,231.984c-3.37-6.688-5.268-14.245-5.268-22.245c0-27.338,22.162-49.5,49.5-49.5s49.5,22.162,49.5,49.5" class="colorStroke333333 svgStroke"/><line x1="154.5" x2="154.5" y1="376.5" y2="409.5" fill="none" stroke="#d85b53" stroke-linecap="round" stroke-linejoin="round" stroke-miterlimit="10" stroke-width="15" class="colorStroke333333 svgStroke"/><line x1="109.5" x2="109.5" y1="376.5" y2="409.5" fill="none" stroke="#d85b53" stroke-linecap="round" stroke-linejoin="round" stroke-miterlimit="10" stroke-width="15" class="colorStroke333333 svgStroke"/><polyline fill="none" stroke="#333" stroke-linecap="round" stroke-linejoin="round" stroke-miterlimit="10" stroke-width="15" points="66 408 66 365.5 28.5 365.5"/><line x1="33.5" x2="66" y1="308.5" y2="334.526" fill="none" stroke="#d85b53" stroke-linecap="round" stroke-linejoin="round" stroke-miterlimit="10" stroke-width="15" class="colorStroke333333 svgStroke"/><polyline fill="none" stroke="#333" stroke-linecap="round" stroke-linejoin="round" stroke-miterlimit="10" stroke-width="15" points="314.5 241.5 358.182 241.5 358.182 282.679"/><polyline fill="none" stroke="#333" stroke-linecap="round" stroke-linejoin="round" stroke-miterlimit="10" stroke-width="15" points="423.116 280.5 423.116 241.5 467.5 241.5"/><line x1="433.5" x2="467.5" y1="195.5" y2="195.5" fill="none" stroke="#d85b53" stroke-linecap="round" stroke-linejoin="round" stroke-miterlimit="10" stroke-width="15" class="colorStroke333333 svgStroke"/><line x1="433.5" x2="467.5" y1="149.5" y2="149.5" fill="none" stroke="#d85b53" stroke-linecap="round" stroke-linejoin="round" stroke-miterlimit="10" stroke-width="15" class="colorStroke333333 svgStroke"/><line x1="417.5" x2="432.5" y1="123.5" y2="88.5" fill="none" stroke="#d85b53" stroke-linecap="round" stroke-linejoin="round" stroke-miterlimit="10" stroke-width="15" class="colorStroke333333 svgStroke"/><line x1="371.5" x2="412.5" y1="83.695" y2="83.695" fill="none" stroke="#d85b53" stroke-linecap="round" stroke-linejoin="round" stroke-miterlimit="10" stroke-width="15" class="colorStroke333333 svgStroke"/></svg>